<svg width="41" height="35" viewBox="0 0 41 35" fill="none" xmlns="http://www.w3.org/2000/svg">
<path d="M40.3634 17.665C40.3634 15.1261 37.0451 12.7197 31.9567 11.2283C33.1317 6.26057 32.6101 2.30687 30.3101 1.04059C29.7528 0.741543 29.122 0.591014 28.4834 0.604664V2.34519C28.8584 2.34519 29.1601 2.41705 29.4134 2.54958C30.5217 3.15956 31.0034 5.47813 30.6284 8.46258C30.5384 9.19711 30.3917 9.96997 30.2117 10.7588C28.5078 10.3654 26.7784 10.0811 25.0351 9.90769C23.9965 8.53489 22.8634 7.23006 21.6434 6.00189C24.3017 3.63541 26.7967 2.3388 28.4934 2.3388V0.59668C26.2501 0.59668 23.3151 2.12802 20.3467 4.78352C17.3801 2.14559 14.4434 0.628616 12.2017 0.628616V2.36914C13.8901 2.36914 16.3934 3.65936 19.0517 6.00987C17.9101 7.15958 16.7684 8.46258 15.6834 9.90769C13.9365 10.0791 12.204 10.3662 10.4984 10.7668C10.3101 9.98593 10.1717 9.22905 10.0734 8.5025C9.69007 5.51646 10.1634 3.19789 11.2651 2.58152C11.5084 2.441 11.8267 2.37713 12.2017 2.37713V0.6366C11.5184 0.6366 10.8967 0.777119 10.3601 1.07253C8.0684 2.3388 7.55507 6.28293 8.73674 11.2362C3.66507 12.7372 0.363403 15.1341 0.363403 17.665C0.363403 20.2039 3.68174 22.6103 8.77007 24.1002C7.59507 29.0694 8.11674 33.0231 10.4167 34.2878C10.9467 34.5848 11.5667 34.7253 12.2501 34.7253C14.4934 34.7253 17.4284 33.194 20.3967 30.5385C23.3634 33.178 26.2984 34.6934 28.5417 34.6934C29.1852 34.7064 29.8208 34.5554 30.3834 34.2559C32.6751 32.9912 33.1884 29.0471 32.0067 24.0938C37.0617 22.6023 40.3634 20.196 40.3634 17.665ZM29.7467 12.4546C29.43 13.4987 29.063 14.5281 28.6467 15.5396C27.9653 14.2698 27.2172 13.0339 26.4051 11.8366C27.5634 12.0011 28.6801 12.2039 29.7484 12.4546H29.7467ZM26.0134 20.774C25.3784 21.8279 24.7251 22.8291 24.0484 23.7584C21.6022 23.965 19.1418 23.9677 16.6951 23.7664C15.2916 21.8457 14.0643 19.8123 13.0267 17.689C14.0627 15.5606 15.2848 13.52 16.6801 11.5891C19.1257 11.3821 21.5855 11.3789 24.0317 11.5796C24.7084 12.5089 25.3701 13.5021 26.0051 14.5496C26.6251 15.5716 27.1884 16.6095 27.7017 17.657C27.1827 18.7172 26.6195 19.7571 26.0134 20.774V20.774ZM28.6467 19.7584C29.0867 20.8043 29.4634 21.8518 29.7717 22.8674C28.7051 23.1181 27.5784 23.3289 26.4134 23.4918C27.2221 22.2837 27.9675 21.0377 28.6467 19.7584V19.7584ZM20.3801 28.0938C19.6217 27.3433 18.8634 26.5081 18.1134 25.5932C18.8467 25.6251 19.5967 25.6491 20.3551 25.6491C21.1217 25.6491 21.8801 25.6331 22.6217 25.5932C21.8884 26.5081 21.1301 27.3433 20.3801 28.0938ZM14.3134 23.4918C13.1896 23.3358 12.074 23.1301 10.9701 22.8754C11.2717 21.8678 11.6467 20.8283 12.0701 19.7904C12.4051 20.4131 12.7567 21.0391 13.1401 21.665C13.5234 22.2894 13.9134 22.8994 14.3134 23.4918ZM20.3384 7.23622C21.0967 7.98673 21.8551 8.82186 22.6051 9.73683C21.8717 9.7049 21.1217 9.68094 20.3634 9.68094C19.5967 9.68094 18.8384 9.69691 18.0967 9.73683C18.8301 8.82186 19.5884 7.98673 20.3384 7.23622ZM14.3051 11.8382C13.4965 13.0437 12.7512 14.2871 12.0717 15.5636C11.6438 14.5456 11.2683 13.508 10.9467 12.4546C12.0134 12.2119 13.1401 12.0011 14.3051 11.8382ZM6.92674 21.6171C4.04007 20.4387 2.1734 18.8914 2.1734 17.665C2.1734 16.4387 4.04007 14.8834 6.92674 13.7129C7.62674 13.4239 8.3934 13.1652 9.18507 12.9241C9.65007 14.4538 10.2617 16.0474 11.0184 17.681C10.304 19.2174 9.69983 20.7987 9.21007 22.4139C8.43582 22.1842 7.6738 21.9183 6.92674 21.6171V21.6171ZM11.3134 32.7788C10.2051 32.172 9.7234 29.8503 10.0984 26.8674C10.1884 26.1329 10.3351 25.3584 10.5151 24.5696C12.1117 24.9449 13.8567 25.2339 15.6917 25.4223C16.7304 26.7951 17.8634 28.0999 19.0834 29.3281C16.4251 31.6946 13.9301 32.9912 12.2334 32.9912C11.9133 32.9946 11.5973 32.9222 11.3134 32.7804V32.7788ZM30.6534 26.8275C31.0367 29.812 30.5634 32.1321 29.4617 32.7485C29.2184 32.889 28.9001 32.9513 28.5251 32.9513C26.8367 32.9513 24.3334 31.6627 21.6751 29.3106C22.8167 28.164 23.9584 26.8594 25.0434 25.4143C26.7903 25.2429 28.5228 24.9558 30.2284 24.5552C30.4167 25.3441 30.5617 26.101 30.6534 26.8275V26.8275ZM33.7917 21.6171C33.0917 21.9061 32.3251 22.1648 31.5334 22.4059C31.035 20.7825 30.4225 19.1932 29.7001 17.649C30.4501 16.0251 31.0517 14.4394 31.5084 12.9161C32.3167 13.1572 33.0817 13.4239 33.8001 13.7129C36.6867 14.8913 38.5534 16.4387 38.5534 17.665C38.5451 18.8914 36.6784 20.4466 33.7917 21.6171V21.6171Z" fill="#132F51"/>
<path d="M20.3551 21.2356C21.3434 21.2356 22.2913 20.8594 22.9902 20.1898C23.6891 19.5202 24.0817 18.612 24.0817 17.665C24.0817 16.7181 23.6891 15.8099 22.9902 15.1403C22.2913 14.4707 21.3434 14.0945 20.3551 14.0945C19.3667 14.0945 18.4188 14.4707 17.7199 15.1403C17.021 15.8099 16.6284 16.7181 16.6284 17.665C16.6284 18.612 17.021 19.5202 17.7199 20.1898C18.4188 20.8594 19.3667 21.2356 20.3551 21.2356V21.2356Z" fill="#132F51"/>
</svg>
