<svg width="41" height="31" viewBox="0 0 41 31" fill="none" xmlns="http://www.w3.org/2000/svg">
<path fill-rule="evenodd" clip-rule="evenodd" d="M8.67174 0.193604C6.3884 0.193604 4.70007 2.10819 4.77674 4.18245C4.8484 6.17847 4.75507 8.76053 4.07674 10.8667C3.3934 12.9777 2.2434 14.3159 0.363403 14.4883V16.4284C2.2434 16.5993 3.39507 17.9374 4.07507 20.05C4.75507 22.1562 4.8484 24.7383 4.77507 26.7327C4.70007 28.8086 6.3884 30.7231 8.67174 30.7231H32.0584C34.3417 30.7231 36.0301 28.8086 35.9534 26.7327C35.8817 24.7383 35.9751 22.1562 36.6534 20.05C37.3351 17.9374 38.4834 16.6009 40.3634 16.4284V14.4883C38.4834 14.3159 37.3351 12.9777 36.6534 10.8667C35.9751 8.75893 35.8817 6.17688 35.9534 4.18245C36.0301 2.10659 34.3401 0.193604 32.0584 0.193604H8.67174ZM27.4801 18.9865C27.4801 21.8448 25.2551 23.5774 21.5634 23.5774H15.2784C15.0985 23.5774 14.926 23.5089 14.7987 23.387C14.6715 23.2652 14.6001 23.0999 14.6001 22.9275V7.98767C14.6005 7.81558 14.6722 7.65068 14.7993 7.52915C14.9265 7.40761 15.0988 7.33936 15.2784 7.33936H21.5284C24.6067 7.33936 26.6284 8.93618 26.6284 11.3905C26.6284 13.1119 25.2684 14.6528 23.5367 14.9242V15.0137C25.8951 15.2612 27.4817 16.826 27.4817 18.9865H27.4801ZM20.8801 9.39766H17.2967V14.2488H20.3151C22.6484 14.2488 23.9351 13.3482 23.9351 11.7386C23.9351 10.2312 22.8284 9.39766 20.8801 9.39766ZM17.2967 16.173V21.5175H21.0134C23.4417 21.5175 24.7301 20.5834 24.7301 18.8285C24.7301 17.072 23.4067 16.173 20.8567 16.173H17.2967Z" fill="#132F51"/>
</svg>
