<svg width="35" height="34" viewBox="0 0 35 34" fill="none" xmlns="http://www.w3.org/2000/svg">
<path d="M0 0.39502V33.9282H35V0.39502H0ZM18.75 26.4431C18.75 29.7074 16.7375 31.2987 13.8242 31.2987C11.193 31.2987 9.66563 29.9933 8.89063 28.4177L11.5688 26.8645C12.0852 27.7425 12.4773 28.4851 13.6047 28.4851C14.5422 28.4851 15.3125 28.0801 15.3125 26.5045V15.964H18.75V26.4431ZM26.5117 31.2239C23.4578 31.2239 21.4844 29.9035 20.5211 28.0801L23.2031 26.5928C23.9062 27.6961 24.8242 28.4312 26.4453 28.4312C27.8078 28.4312 28.5992 27.8533 28.5992 26.9529C28.5992 25.8728 27.7844 25.4903 26.2805 24.857L25.4586 24.5187C23.0852 23.5516 21.5117 22.3361 21.5117 19.7694C21.5117 17.4064 23.3906 15.6803 26.3273 15.6803C28.4187 15.6803 29.9211 16.3031 31.0031 18.1265L28.4375 19.7066C27.8734 18.7387 27.2656 18.3592 26.3234 18.3592C25.3602 18.3592 24.7492 18.9446 24.7492 19.7066C24.7492 20.6519 25.3602 21.0344 26.7695 21.6197L27.5914 21.9573C30.3875 23.1055 31.9617 24.2777 31.9617 26.9095C31.9625 29.7463 29.6367 31.2239 26.5117 31.2239Z" fill="#132F51"/>
</svg>
