<svg width="27" height="39" viewBox="0 0 27 39" fill="none" xmlns="http://www.w3.org/2000/svg">
<path d="M6.87187 0H13.3534V12.42H6.87195C-1.67571 12.0998 -1.76204 0.336229 6.87187 0ZM6.87187 25.3711H13.3534V12.9512H6.87195C-1.76196 13.2874 -1.67563 25.051 6.87195 25.3711H6.87187ZM20.3896 0H13.9079V12.42H20.3896C29.0523 11.9758 28.9443 0.253519 20.3896 0ZM13.3534 32.1124V25.9023H6.87195C1.58273 25.9023 -1.76196 31.8437 1.91656 36.111C5.42375 40.3408 13.3535 38.232 13.3535 32.1124H13.3534ZM26.8845 19.1611C26.8845 14.3887 21.4549 11.3898 17.1348 13.776C12.8148 16.1623 12.8147 22.1601 17.1348 24.5463C21.455 26.9326 26.8845 23.9336 26.8845 19.1611Z" fill="#132F51"/>
</svg>
