<svg width="41" height="39" viewBox="0 0 41 39" fill="none" xmlns="http://www.w3.org/2000/svg">
<path d="M0.925903 0V38.3235H40.9259V0H0.925903ZM17.9211 27.5096L14.2228 20.2074L10.6546 27.4922H7.17692L12.2947 18.151L7.34653 8.70512H10.9561L14.4593 15.8853L17.9332 8.68768H21.3215L16.3693 17.8546L21.614 27.5096H17.921H17.9211ZM33.7772 26.7428C32.2493 27.4399 30.6485 27.7536 29.1205 27.7536C25.1733 27.7711 22.3539 25.4357 22.3539 20.6954C22.4823 15.8394 25.8595 13.1297 30.594 13.4977V8.70512H33.8318V24.8432C33.8385 26.7678 34.0602 26.5827 33.7772 26.7428V26.7428ZM30.5939 16.2339V24.8606C27.398 25.6551 25.631 23.7917 25.6462 20.5559C25.6582 17.2375 27.9339 15.5152 30.5939 16.2339Z" fill="#132F51"/>
</svg>
