<svg width="192" height="55" viewBox="0 0 192 55" fill="none" xmlns="http://www.w3.org/2000/svg">
<path d="M7.12803 19L0.840027 1.72H4.80003L8.56803 12.016L12.336 1.72H15.768L19.56 12.016L23.328 1.72H27.264L20.976 19H18.12L14.04 7.888L9.98403 19H7.12803Z" fill="white"/>
<path d="M31.0712 19C30.1272 19 29.3112 18.656 28.6232 17.968C27.9352 17.28 27.5912 16.464 27.5912 15.52V8.56C27.5912 7.616 27.9352 6.8 28.6232 6.112C29.3112 5.424 30.1272 5.08 31.0712 5.08H38.2232C39.1832 5.08 39.9992 5.424 40.6712 6.112C41.3592 6.8 41.7032 7.616 41.7032 8.56V13.888H31.2632V14.536C31.2632 15.064 31.2632 15.328 31.2632 15.328C31.2632 15.328 31.5272 15.328 32.0552 15.328H41.7032V19H31.0712ZM31.2632 10.672H38.0312V9.544C38.0312 9.016 38.0312 8.752 38.0312 8.752C38.0312 8.752 37.7672 8.752 37.2392 8.752H32.0552C31.5272 8.752 31.2632 8.752 31.2632 8.752C31.2632 8.752 31.2632 9.016 31.2632 9.544V10.672Z" fill="white"/>
<path d="M47.0796 19C46.1356 19 45.3196 18.656 44.6316 17.968C43.9436 17.28 43.5996 16.464 43.5996 15.52V0.496002H47.2956V14.536C47.2956 15.064 47.2956 15.328 47.2956 15.328C47.2956 15.328 47.5596 15.328 48.0876 15.328H50.1036V19H47.0796Z" fill="white"/>
<path d="M55.3999 19C54.4559 19 53.6399 18.656 52.9519 17.968C52.2639 17.28 51.9199 16.464 51.9199 15.52V0.496002H55.6159V14.536C55.6159 15.064 55.6159 15.328 55.6159 15.328C55.6159 15.328 55.8799 15.328 56.4079 15.328H58.4239V19H55.3999Z" fill="white"/>
<path d="M60.7324 19V5.08H64.4044V19H60.7324ZM60.7324 4.216V0.520002H64.4044V4.216H60.7324Z" fill="white"/>
<path d="M67.2257 19V5.08H77.8577C78.8177 5.08 79.6337 5.424 80.3057 6.112C80.9937 6.8 81.3377 7.616 81.3377 8.56V19H77.6657V9.544C77.6657 9.016 77.6657 8.752 77.6657 8.752C77.6657 8.752 77.4017 8.752 76.8737 8.752H71.6897C71.1617 8.752 70.8977 8.752 70.8977 8.752C70.8977 8.752 70.8977 9.016 70.8977 9.544V19H67.2257Z" fill="white"/>
<path d="M85.5983 24.496V20.8H93.0623C93.5903 20.8 93.8543 20.8 93.8543 20.8C93.8543 20.8 93.8543 20.536 93.8543 20.008V19H86.8943C85.9343 19 85.1103 18.656 84.4223 17.968C83.7343 17.28 83.3903 16.464 83.3903 15.52V8.56C83.3903 7.616 83.7343 6.8 84.4223 6.112C85.1103 5.424 85.9343 5.08 86.8943 5.08H94.0463C95.0063 5.08 95.8223 5.424 96.4943 6.112C97.1823 6.8 97.5263 7.616 97.5263 8.56V21.016C97.5263 21.976 97.1823 22.792 96.4943 23.464C95.8223 24.152 95.0063 24.496 94.0463 24.496H85.5983ZM87.8543 15.328H93.0623C93.5903 15.328 93.8543 15.328 93.8543 15.328C93.8543 15.328 93.8543 15.064 93.8543 14.536V9.544C93.8543 9.016 93.8543 8.752 93.8543 8.752C93.8543 8.752 93.5903 8.752 93.0623 8.752H87.8543C87.3263 8.752 87.0623 8.752 87.0623 8.752C87.0623 8.752 87.0623 9.016 87.0623 9.544V14.536C87.0623 15.064 87.0623 15.328 87.0623 15.328C87.0623 15.328 87.3263 15.328 87.8543 15.328Z" fill="white"/>
<path d="M103.565 19C102.605 19 101.781 18.656 101.093 17.968C100.405 17.28 100.061 16.464 100.061 15.52V0.952002H103.733V5.08H108.893V8.752H103.733V14.536C103.733 15.064 103.733 15.328 103.733 15.328C103.733 15.328 103.997 15.328 104.525 15.328H108.893V19H103.565Z" fill="white"/>
<path d="M114.321 19C113.377 19 112.561 18.656 111.873 17.968C111.185 17.28 110.841 16.464 110.841 15.52V8.56C110.841 7.616 111.185 6.8 111.873 6.112C112.561 5.424 113.377 5.08 114.321 5.08H121.473C122.433 5.08 123.249 5.424 123.921 6.112C124.609 6.8 124.953 7.616 124.953 8.56V15.52C124.953 16.464 124.609 17.28 123.921 17.968C123.249 18.656 122.433 19 121.473 19H114.321ZM115.305 15.328H120.489C121.017 15.328 121.281 15.328 121.281 15.328C121.281 15.328 121.281 15.064 121.281 14.536V9.544C121.281 9.016 121.281 8.752 121.281 8.752C121.281 8.752 121.017 8.752 120.489 8.752H115.305C114.777 8.752 114.513 8.752 114.513 8.752C114.513 8.752 114.513 9.016 114.513 9.544V14.536C114.513 15.064 114.513 15.328 114.513 15.328C114.513 15.328 114.777 15.328 115.305 15.328Z" fill="white"/>
<path d="M126.827 19V5.08H137.459C138.419 5.08 139.235 5.424 139.907 6.112C140.595 6.8 140.939 7.616 140.939 8.56V19H137.267V9.544C137.267 9.016 137.267 8.752 137.267 8.752C137.267 8.752 137.003 8.752 136.475 8.752H131.291C130.763 8.752 130.499 8.752 130.499 8.752C130.499 8.752 130.499 9.016 130.499 9.544V19H126.827Z" fill="white"/>
<path d="M78.6878 49V31.72H82.5278L88.3838 38.704L94.2158 31.72H98.0798V49H94.3358V37.408L88.3838 44.512L82.4078 37.432V49H78.6878Z" fill="white"/>
<path d="M104.103 49C103.143 49 102.319 48.656 101.631 47.968C100.959 47.28 100.623 46.464 100.623 45.52V40.192H111.063V39.544C111.063 39.016 111.063 38.752 111.063 38.752C111.063 38.752 110.799 38.752 110.271 38.752H100.623V35.08H111.255C112.215 35.08 113.031 35.424 113.703 36.112C114.391 36.8 114.735 37.616 114.735 38.56V49H104.103ZM105.087 45.328H111.063V43.408H104.295V44.536C104.295 45.064 104.295 45.328 104.295 45.328C104.295 45.328 104.559 45.328 105.087 45.328Z" fill="white"/>
<path d="M116.631 49V38.56C116.631 37.616 116.975 36.8 117.663 36.112C118.351 35.424 119.175 35.08 120.135 35.08H127.815V38.752H121.095C120.567 38.752 120.303 38.752 120.303 38.752C120.303 38.752 120.303 39.016 120.303 39.544V49H116.631Z" fill="white"/>
<path d="M138.96 54.52V49H131.976C131.016 49 130.192 48.656 129.504 47.968C128.832 47.28 128.496 46.464 128.496 45.52V38.56C128.496 37.616 128.832 36.8 129.504 36.112C130.192 35.424 131.016 35.08 131.976 35.08H142.632V54.52H138.96ZM132.984 45.328H138.168C138.696 45.328 138.96 45.328 138.96 45.328C138.96 45.328 138.96 45.064 138.96 44.536V39.544C138.96 39.016 138.96 38.752 138.96 38.752C138.96 38.752 138.696 38.752 138.168 38.752H132.984C132.456 38.752 132.192 38.752 132.192 38.752C132.192 38.752 132.192 39.016 132.192 39.544V44.536C132.192 45.064 132.192 45.328 132.192 45.328C132.192 45.328 132.456 45.328 132.984 45.328Z" fill="white"/>
<path d="M148.307 49C147.347 49 146.523 48.656 145.835 47.968C145.163 47.28 144.827 46.464 144.827 45.52V35.08H148.499V44.536C148.499 45.064 148.499 45.328 148.499 45.328C148.499 45.328 148.763 45.328 149.291 45.328H154.475C155.003 45.328 155.267 45.328 155.267 45.328C155.267 45.328 155.267 45.064 155.267 44.536V35.08H158.939V45.52C158.939 46.464 158.595 47.28 157.907 47.968C157.235 48.656 156.419 49 155.459 49H148.307Z" fill="white"/>
<path d="M164.337 49C163.393 49 162.577 48.656 161.889 47.968C161.201 47.28 160.857 46.464 160.857 45.52V38.56C160.857 37.616 161.201 36.8 161.889 36.112C162.577 35.424 163.393 35.08 164.337 35.08H171.489C172.449 35.08 173.265 35.424 173.937 36.112C174.625 36.8 174.969 37.616 174.969 38.56V43.888H164.529V44.536C164.529 45.064 164.529 45.328 164.529 45.328C164.529 45.328 164.793 45.328 165.321 45.328H174.969V49H164.337ZM164.529 40.672H171.297V39.544C171.297 39.016 171.297 38.752 171.297 38.752C171.297 38.752 171.033 38.752 170.505 38.752H165.321C164.793 38.752 164.529 38.752 164.529 38.752C164.529 38.752 164.529 39.016 164.529 39.544V40.672Z" fill="white"/>
<path d="M180.648 49C179.704 49 178.888 48.656 178.2 47.968C177.512 47.28 177.168 46.464 177.168 45.52V44.824H180.84V44.944C180.84 45.2 180.84 45.328 180.84 45.328C180.84 45.328 180.968 45.328 181.224 45.328H187.224C187.48 45.328 187.608 45.328 187.608 45.328C187.608 45.328 187.608 45.2 187.608 44.944V44.272C187.608 44.016 187.608 43.888 187.608 43.888C187.608 43.888 187.48 43.888 187.224 43.888H180.648C179.704 43.888 178.888 43.544 178.2 42.856C177.512 42.168 177.168 41.352 177.168 40.408V38.56C177.168 37.616 177.512 36.8 178.2 36.112C178.888 35.424 179.704 35.08 180.648 35.08H187.8C188.76 35.08 189.584 35.424 190.272 36.112C190.96 36.8 191.304 37.616 191.304 38.56V39.256H187.608V39.136C187.608 38.88 187.608 38.752 187.608 38.752C187.608 38.752 187.48 38.752 187.224 38.752H181.224C180.968 38.752 180.84 38.752 180.84 38.752C180.84 38.752 180.84 38.88 180.84 39.136V39.808C180.84 40.064 180.84 40.192 180.84 40.192C180.84 40.192 180.968 40.192 181.224 40.192H187.8C188.76 40.192 189.584 40.536 190.272 41.224C190.96 41.912 191.304 42.728 191.304 43.672V45.52C191.304 46.464 190.96 47.28 190.272 47.968C189.584 48.656 188.76 49 187.8 49H180.648Z" fill="white"/>
</svg>
